<?xml version="1.0" encoding="UTF-8"?>
<svg version="1.1" xmlns="http://www.w3.org/2000/svg" width="404" height="316">
<path d="M0 0 C0.87269531 0.7321875 1.74539063 1.464375 2.64453125 2.21875 C3.99998047 3.34796875 3.99998047 3.34796875 5.3828125 4.5 C9.30150637 7.89039588 12.70292395 11.20525757 15.79150391 15.37084961 C16.32715973 16.09139023 16.86281555 16.81193085 17.41470337 17.55430603 C18.02346817 18.3782058 18.02346817 18.3782058 18.64453125 19.21875 C17.97749994 19.88025055 17.97749994 19.88025055 17.29699326 20.55511475 C6.46032177 31.30331687 -4.36514933 42.06266348 -15.17839432 52.83442688 C-20.40794238 58.0433798 -25.64116333 63.24853855 -30.88330078 68.44482422 C-35.45416476 72.97572697 -40.01787215 77.51369844 -44.57324767 82.06017494 C-46.98389336 84.46562159 -49.39789176 86.86746421 -51.82050323 89.26086426 C-54.52810427 91.93937748 -57.22287484 94.63020265 -59.91503906 97.32421875 C-61.11373878 98.50134682 -61.11373878 98.50134682 -62.33665466 99.70225525 C-67.4511721 104.85490399 -71.52725434 109.7427383 -72.88671875 117.08984375 C-72.80906632 123.4670498 -72.08531965 128.89777157 -68.35546875 134.21875 C-63.23372163 139.11377995 -58.79610553 141.35783822 -51.66796875 141.53125 C-50.67410156 141.56863281 -49.68023437 141.60601562 -48.65625 141.64453125 C-40.39433276 140.57879281 -35.02845355 135.45716099 -29.41064453 129.69628906 C-28.66166397 128.94468002 -27.91268341 128.19307098 -27.14100647 127.41868591 C-24.68490687 124.94967663 -22.24307789 122.4670318 -19.80078125 119.984375 C-18.09167054 118.26271661 -16.38152086 116.54208903 -14.67037964 114.82244873 C-10.18115443 110.30668504 -5.703224 105.77990063 -1.22845459 101.24981689 C5.95253447 93.98238099 13.14723427 86.72857716 20.34827042 79.48101044 C22.86473217 76.94404076 25.3742989 74.40039299 27.88327026 71.85601807 C29.41397735 70.31166406 30.94490004 68.76752371 32.47607422 67.22363281 C33.17632217 66.50991013 33.87657013 65.79618744 34.59803772 65.06083679 C35.23711563 64.41872757 35.87619354 63.77661835 36.53463745 63.11505127 C37.09022779 62.55242207 37.64581814 61.98979286 38.21824455 61.41011429 C39.64453125 60.21875 39.64453125 60.21875 41.64453125 60.21875 C49.74006827 95.95207387 47.10393121 129.52497482 27.64453125 161.21875 C8.37777985 190.63038377 -20.21184224 208.9345052 -54.35546875 216.21875 C-85.11395118 222.05097433 -117.85567672 214.39868172 -143.609375 197.0234375 C-153.15955965 190.02240814 -161.77769523 182.31939023 -169.35546875 173.21875 C-164.88866698 167.8605916 -160.1584611 162.90546523 -155.19458008 158.0078125 C-154.39873001 157.21824158 -153.60287994 156.42867065 -152.78291321 155.61517334 C-151.06520969 153.9112555 -149.34644294 152.20840894 -147.62671852 150.50653076 C-144.90414428 147.8107222 -142.18607918 145.11044605 -139.46940613 142.40869141 C-131.74884518 134.7307651 -124.02587786 127.05532434 -116.28637695 119.39648438 C-111.54367349 114.70310976 -106.81160919 109.99923211 -102.08539391 105.28924561 C-100.28571091 103.49945498 -98.48237925 101.71332535 -96.67533302 99.93096924 C-94.15031185 97.43970329 -91.63798967 94.93625831 -89.12817383 92.4296875 C-88.38162537 91.69909119 -87.6350769 90.96849487 -86.86590576 90.21575928 C-81.42623487 84.74391849 -77.92989698 79.80895105 -77.91796875 71.78125 C-78.12409366 65.51161737 -79.73549312 61.1305546 -83.93359375 56.46484375 C-88.71277768 51.99781372 -93.27089836 50.49916549 -99.79296875 49.90625 C-111.69874155 50.95061604 -118.7526554 59.4488997 -126.74951172 67.53100586 C-127.43997086 68.22453156 -128.13042999 68.91805725 -128.84181213 69.63259888 C-130.32534044 71.12322634 -131.80773613 72.61498174 -133.2890892 74.10777092 C-135.63145752 76.46764768 -137.97745468 78.82386112 -140.32449341 81.17909241 C-146.9914574 87.87042255 -153.65262138 94.56750546 -160.30957031 101.26879883 C-164.39294243 105.3788663 -168.48110183 109.48412044 -172.57229996 113.58639717 C-174.12997982 115.15030033 -175.68575773 116.71610021 -177.23962021 118.28379631 C-179.40119494 120.46446679 -181.56874852 122.63901895 -183.73779297 124.81225586 C-184.38193649 125.46516098 -185.02608002 126.1180661 -185.68974304 126.79075623 C-190.12756988 131.21875 -190.12756988 131.21875 -192.35546875 131.21875 C-197.02070204 111.49457763 -197.02070204 111.49457763 -197.35546875 102.21875 C-197.40703125 101.28933594 -197.45859375 100.35992187 -197.51171875 99.40234375 C-198.54129639 65.81237321 -185.14069527 34.43682114 -162.3815918 10.19946289 C-119.74077117 -33.67227806 -47.72182836 -37.91048742 0 0 Z " fill="#204898" transform="translate(277.35546875,71.78125)"/>
<path d="M0 0 C2.94560503 2.61596905 5.74909379 5.367374 8.55078125 8.13671875 C9.54444712 9.06250859 10.54055967 9.9856791 11.5390625 10.90625 C12.47105469 11.78667969 13.40304687 12.66710937 14.36328125 13.57421875 C15.61044922 14.74791016 15.61044922 14.74791016 16.8828125 15.9453125 C18.55078125 18.13671875 18.55078125 18.13671875 18.50390625 20.21875 C17.42578413 22.38824984 16.2542121 23.73350689 14.48828125 25.38671875 C13.66650391 26.16789062 13.66650391 26.16789062 12.828125 26.96484375 C12.40660156 27.3515625 11.98507812 27.73828125 11.55078125 28.13671875 C8.11888784 26.69607778 6.32807881 24.93958639 3.98828125 22.07421875 C-0.64052557 16.72403944 -5.84338243 12.42819232 -11.44921875 8.13671875 C-12.2175 7.54117188 -12.98578125 6.945625 -13.77734375 6.33203125 C-40.34463365 -13.27715892 -74.11556713 -21.46289001 -106.76855469 -17.04321289 C-127.84210096 -13.77355442 -147.19747613 -6.57641135 -164.44921875 6.13671875 C-165.27421875 6.73871094 -166.09921875 7.34070313 -166.94921875 7.9609375 C-194.74081273 29.20547328 -212.05114496 60.71502094 -216.73486328 95.24243164 C-218.79863019 112.22328294 -217.88076511 129.8890467 -213.28515625 146.40234375 C-212.48289898 149.98625941 -212.19367455 151.74382955 -213.44921875 155.13671875 C-215.0078125 157.375 -215.0078125 157.375 -216.88671875 159.44921875 C-217.81291016 160.49529297 -217.81291016 160.49529297 -218.7578125 161.5625 C-220.44921875 163.13671875 -220.44921875 163.13671875 -222.44921875 163.13671875 C-229.26303865 141.53505076 -229.26303865 141.53505076 -230.44921875 131.13671875 C-230.61357422 129.84701172 -230.61357422 129.84701172 -230.78125 128.53125 C-234.87288382 91.59743542 -224.66604348 53.10301656 -201.66015625 23.80078125 C-198.05018205 19.45095368 -194.33217231 15.24457933 -190.44921875 11.13671875 C-189.70285156 10.32589844 -188.95648438 9.51507813 -188.1875 8.6796875 C-139.47968873 -42.44338714 -53.33069347 -45.4939613 0 0 Z " fill="#234B9A" transform="translate(291.44921875,57.86328125)"/>
<path d="M0 0 C11.71625422 42.64363835 10.98748959 83.73057933 -11.21044922 122.88012695 C-30.94537334 156.36479329 -61.88772607 179.54984123 -99.21044922 189.80249023 C-135.10759791 199.06269567 -173.06925373 193.37096265 -205.07470703 174.79589844 C-217.45826061 167.27286687 -237.2396969 155.01237937 -242 141 C-240.47005208 139.76302083 -238.94010417 138.52604167 -237.41015625 137.2890625 C-235.86733563 136.0333609 -235.86733563 136.0333609 -235 134 C-231.4446038 134.56057003 -230.13887258 135.63933588 -227.9375 138.4375 C-206.75980934 163.55522613 -175.5768899 176.66391527 -143.44140625 179.79345703 C-112.73133408 182.39152914 -79.23588563 173.11460488 -55.17431641 153.51269531 C-51.2932696 150.16296328 -47.6416459 146.60638792 -44 143 C-42.89591797 141.98679687 -42.89591797 141.98679687 -41.76953125 140.953125 C-20.40663781 120.99736825 -7.13383989 89.1227817 -5.87548828 60.13134766 C-5.49958011 44.89655994 -5.43977667 29.67212458 -9.92578125 14.96484375 C-11.21755425 10.57281553 -11.21755425 10.57281553 -11 8 C-8.26858238 3.82738213 -5.19569977 0 0 0 Z " fill="#234B9A" transform="translate(336,116)"/>
<path d="M0 0 C0 0.66 0 1.32 0 2 C-0.66 2.66 -1.32 3.32 -2 4 C-2.9047765 5.05681148 -3.80281126 6.11941002 -4.69628906 7.18579102 C-7.92422108 10.96744391 -11.34820129 14.50962619 -14.859375 18.02734375 C-15.48982727 18.66112442 -16.12027954 19.29490509 -16.76983643 19.94789124 C-18.08955568 21.27263345 -19.41059612 22.5960607 -20.73291016 23.91821289 C-22.76363439 25.95114924 -24.78619741 27.99198584 -26.80859375 30.03320312 C-28.09586541 31.3234045 -29.38360876 32.61313546 -30.671875 33.90234375 C-31.2770697 34.51472397 -31.8822644 35.12710419 -32.50579834 35.75804138 C-36.7711454 40 -36.7711454 40 -39 40 C-39.226875 40.556875 -39.45375 41.11375 -39.6875 41.6875 C-41.35896766 44.63246684 -43.55276352 46.68156544 -46 49 C-46.66 48.67 -47.32 48.34 -48 48 C-45.95140985 44.31813094 -43.71645041 41.46395783 -40.74389648 38.48510742 C-39.46258095 37.1943354 -39.46258095 37.1943354 -38.15538025 35.87748718 C-37.2365657 34.9627211 -36.31775116 34.04795502 -35.37109375 33.10546875 C-34.41580959 32.14883631 -33.4608224 31.19190724 -32.50611877 30.23469543 C-30.51129995 28.23693727 -28.51293129 26.24281881 -26.51196289 24.2512207 C-23.9438075 21.69450566 -21.38479733 19.12885384 -18.82833767 16.56045055 C-16.86145366 14.58635532 -14.8898508 12.6170288 -12.91676521 10.64913368 C-11.51036375 9.24471859 -10.10799581 7.83626805 -8.70567322 6.42778015 C-7.85461502 5.58302628 -7.00355682 4.7382724 -6.12670898 3.86791992 C-5.37630844 3.11911057 -4.6259079 2.37030121 -3.85276794 1.59880066 C-2 0 -2 0 0 0 Z " fill="#3C60A5" transform="translate(319,132)"/>
<path d="M0 0 C0.33 0.99 0.66 1.98 1 3 C-0.87363277 6.0021529 -3.55188966 8.45912765 -6 11 C-6.4729248 11.49338867 -6.94584961 11.98677734 -7.43310547 12.49511719 C-8.98802243 14.11001022 -10.5539326 15.71332157 -12.125 17.3125 C-12.62733154 17.82804443 -13.12966309 18.34358887 -13.6472168 18.87475586 C-16.53416711 21.76739942 -19.29794763 24.22583303 -23 26 C-23.66 25.67 -24.32 25.34 -25 25 C-16.75 16.75 -8.5 8.5 0 0 Z " fill="#3C60A5" transform="translate(268,181)"/>
<path d="M0 0 C0 0.33 0 0.66 0 1 C-2.05078125 1.22786458 -4.1015625 1.45572917 -6.15234375 1.68359375 C-8.01140229 1.81886614 -8.01140229 1.81886614 -9 3 C-15.03357931 3.45790557 -21.02136775 2.7591914 -27 2 C-27 1.67 -27 1.34 -27 1 C-18.02243049 -0.3300103 -9.05168034 -0.08788039 0 0 Z " fill="#375BA3" transform="translate(211,46)"/>
<path d="M0 0 C0.99 0.33 1.98 0.66 3 1 C-3.15034169 8.48291572 -3.15034169 8.48291572 -7 11 C-7 7 -7 7 -5.46875 5.078125 C-4.8190625 4.47484375 -4.169375 3.8715625 -3.5 3.25 C-2.8503125 2.63640625 -2.200625 2.0228125 -1.53125 1.390625 C-1.0259375 0.93171875 -0.520625 0.4728125 0 0 Z " fill="#385CA5" transform="translate(120,77)"/>
<path d="M0 0 C13.86 0.495 13.86 0.495 28 1 C28 1.33 28 1.66 28 2 C17.11 2.495 17.11 2.495 6 3 C6 2.34 6 1.68 6 1 C4.02 1 2.04 1 0 1 C0 0.67 0 0.34 0 0 Z " fill="#0D3990" transform="translate(184,286)"/>
<path d="M0 0 C-1.55500981 3.81684226 -4.03595495 6.19195732 -7 9 C-7.66 8.67 -8.32 8.34 -9 8 C-4.45945946 0 -4.45945946 0 0 0 Z " fill="#3156A0" transform="translate(280,172)"/>
<path d="M0 0 C-3.48216283 2.05137315 -6.77275657 2.56818592 -10.75 3.125 C-11.92046875 3.29257812 -13.0909375 3.46015625 -14.296875 3.6328125 C-15.18890625 3.75398438 -16.0809375 3.87515625 -17 4 C-17 3.34 -17 2.68 -17 2 C-15.01432292 1.51171875 -13.02864583 1.0234375 -11.04296875 0.53515625 C-6.76574586 -0.58526351 -4.41460996 -0.88292199 0 0 Z " fill="#3C5FA5" transform="translate(236,305)"/>
<path d="M0 0 C0.66 0.33 1.32 0.66 2 1 C-0.25740623 3.33524782 -2.2805761 5.18705073 -5 7 C-6.32 6.67 -7.64 6.34 -9 6 C-6.03 4.02 -3.06 2.04 0 0 Z " fill="#2A519D" transform="translate(141,62)"/>
<path d="M0 0 C0.66 0.66 1.32 1.32 2 2 C-0.97 4.475 -0.97 4.475 -4 7 C-4.66 6.34 -5.32 5.68 -6 5 C-4.02 3.35 -2.04 1.7 0 0 Z " fill="#194295" transform="translate(102,251)"/>
<path d="M0 0 C3.5625 1.25 3.5625 1.25 7 3 C7.33 3.99 7.66 4.98 8 6 C4.08788267 4.84414715 1.1254959 3.64465038 -2 1 C-1.34 0.67 -0.68 0.34 0 0 Z " fill="#274F9C" transform="translate(146,273)"/>
<path d="M0 0 C0.8125 1.6875 0.8125 1.6875 1 4 C-1.4375 6.75 -1.4375 6.75 -4 9 C-4 5.00095031 -2.27413033 3.19799578 0 0 Z " fill="#365AA3" transform="translate(86,87)"/>
<path d="M0 0 C0.33 0.99 0.66 1.98 1 3 C-1.31 4.98 -3.62 6.96 -6 9 C-6.66 8.67 -7.32 8.34 -8 8 C-5.36 5.36 -2.72 2.72 0 0 Z " fill="#6E8ABD" transform="translate(168,184)"/>
<path d="M0 0 C0.33 0.99 0.66 1.98 1 3 C-1.31 4.98 -3.62 6.96 -6 9 C-6.66 8.67 -7.32 8.34 -8 8 C-5.36 5.36 -2.72 2.72 0 0 Z " fill="#6D85BC" transform="translate(180,172)"/>
<path d="M0 0 C2.9375 0.8125 2.9375 0.8125 6 2 C6.33 2.99 6.66 3.98 7 5 C1.25 3.25 1.25 3.25 -1 1 C-0.67 0.67 -0.34 0.34 0 0 Z " fill="#3257A1" transform="translate(256,49)"/>
</svg>
